<?xml version="1.0" encoding="utf-8"?>
<!-- Generator: Adobe Illustrator 16.0.0, SVG Export Plug-In . SVG Version: 6.00 Build 0)  -->
<!DOCTYPE svg PUBLIC "-//W3C//DTD SVG 1.1//EN" "http://www.w3.org/Graphics/SVG/1.1/DTD/svg11.dtd">
<svg version="1.1" id="Layer_1" xmlns="http://www.w3.org/2000/svg" xmlns:xlink="http://www.w3.org/1999/xlink" x="0px" y="0px"
	 width="486.083px" height="61.167px" viewBox="0 0 486.083 61.167" enable-background="new 0 0 486.083 61.167"
	 xml:space="preserve">
<g>
	<path fill="#FFFFFF" d="M106.563,58.583H83.047V22.841L62.031,58.583H44.492L23.516,22.841v35.742H0V2.528h27.93l25.352,40.039
		L78.594,2.528h27.969V58.583z"/>
	<path fill="#FFFFFF" d="M186.563,58.583h-67.5V2.528h64.414v13.867h-40.898v8.789h34.57v10.781h-34.57v8.75h43.984V58.583z"/>
	<path fill="#FFFFFF" d="M237.5,58.583h-23.516V16.396h-21.953V2.528h67.422v13.867H237.5V58.583z"/>
	<path fill="#FFFFFF" d="M344.219,58.583h-23.828l-5.273-9.18h-35.352l-5.273,9.18h-23.828l35.859-56.016h21.836L344.219,58.583z
		 M307.188,35.536l-9.727-16.992l-9.766,16.992H307.188z"/>
	<path opacity="0.8" fill="#FFFFFF" stroke="#FFFFFF" stroke-width="2" stroke-miterlimit="10" d="M386.789,58.856h-22.148
		L332.922,2.294h24.492l18.32,39.648l18.32-39.648h24.453L386.789,58.856z M386.477,58.31L417.57,2.841h-23.164l-18.672,40.391
		L357.063,2.841h-23.203l31.094,55.469H386.477z"/>
	<path opacity="0.8" fill="#FFFFFF" stroke="#FFFFFF" stroke-width="2" stroke-miterlimit="10" d="M450.969,60.067
		c-7.604,0-13.744-0.82-18.418-2.461c-4.675-1.641-8.236-3.906-10.684-6.797c-2.448-2.891-4.128-6.328-5.039-10.313h25.469
		c1.849,2.656,4.739,3.984,8.672,3.984c3.932,0,6.797-1.289,8.594-3.867c0.13-0.208,0.195-0.391,0.195-0.547
		c0-1.041-3.62-1.744-10.859-2.109c-4.688-0.208-9.597-0.703-14.727-1.484c-11.589-1.797-17.383-6.484-17.383-14.063
		c0-0.65,0.039-1.328,0.117-2.031c0.859-3.775,2.513-7.109,4.961-10c2.447-2.891,6.009-5.156,10.684-6.797
		c4.674-1.641,10.813-2.461,18.418-2.461c7.604,0,13.743,0.82,18.418,2.461c4.674,1.641,8.235,3.906,10.684,6.797
		c2.447,2.891,4.127,6.328,5.039,10.313h-25.469c-1.85-2.656-4.74-3.984-8.672-3.984c-3.933,0-6.797,1.289-8.594,3.867
		c-0.104,0.156-0.156,0.3-0.156,0.43c0,0.469,0.853,0.847,2.559,1.133c1.705,0.287,4.297,0.534,7.773,0.742
		c3.477,0.209,7.188,0.547,11.133,1.016s7.643,1.289,11.094,2.461c3.45,1.172,6.152,2.917,8.105,5.234
		c1.563,1.797,2.344,4.063,2.344,6.797c0,0.781-0.065,1.589-0.195,2.422c-0.859,3.776-2.514,7.109-4.961,10
		c-2.448,2.891-6.01,5.156-10.684,6.797C464.712,59.247,458.572,60.067,450.969,60.067z M450.969,59.521
		c7.552,0,13.626-0.808,18.223-2.422c4.596-1.614,8.092-3.828,10.488-6.641c2.396-2.813,3.997-6.055,4.805-9.727
		c0.13-0.807,0.195-1.588,0.195-2.344c0-2.604-0.729-4.752-2.188-6.445c-1.901-2.239-4.551-3.932-7.949-5.078
		c-3.398-1.146-7.058-1.953-10.977-2.422c-3.92-0.469-7.617-0.807-11.094-1.016c-3.477-0.208-6.146-0.469-8.008-0.781
		c-1.862-0.313-2.793-0.859-2.793-1.641c0-0.234,0.078-0.481,0.234-0.742c1.9-2.734,4.922-4.102,9.063-4.102
		s7.135,1.328,8.984,3.984h24.453c-0.756-3.463-2.331-6.602-4.727-9.414c-2.396-2.813-5.893-5.025-10.488-6.641
		c-4.597-1.614-10.671-2.422-18.223-2.422c-7.553,0-13.627,0.808-18.223,2.422c-4.597,1.615-8.093,3.828-10.488,6.641
		c-2.396,2.813-3.998,6.055-4.805,9.727c-0.078,0.678-0.117,1.328-0.117,1.953c0,7.266,5.638,11.771,16.914,13.516
		c5.13,0.781,10.013,1.276,14.648,1.484c3.724,0.183,6.556,0.456,8.496,0.82c1.939,0.365,2.91,0.977,2.91,1.836
		c0,0.261-0.092,0.547-0.273,0.859c-1.901,2.734-4.922,4.102-9.063,4.102s-7.136-1.328-8.984-3.984h-24.453
		c0.755,3.464,2.33,6.602,4.727,9.414c2.396,2.813,5.892,5.026,10.488,6.641C437.342,58.713,443.416,59.521,450.969,59.521z"/>
</g>
</svg>
