<?xml version="1.0" encoding="utf-8"?>
<!-- Generator: Adobe Illustrator 16.0.0, SVG Export Plug-In . SVG Version: 6.00 Build 0)  -->
<!DOCTYPE svg PUBLIC "-//W3C//DTD SVG 1.1//EN" "http://www.w3.org/Graphics/SVG/1.1/DTD/svg11.dtd">
<svg version="1.1" id="Layer_1" xmlns="http://www.w3.org/2000/svg" xmlns:xlink="http://www.w3.org/1999/xlink" x="0px" y="0px"
	 width="335.566px" height="106.6px" viewBox="0 0 335.566 106.6" enable-background="new 0 0 335.566 106.6" xml:space="preserve">
<polygon fill="#000713" points="205.427,15.281 207.663,0 158.705,0 156.385,15.281 11.26,15.281 0,91.469 324.301,91.469 
	335.567,15.281 "/>
<polygon fill="#1555FF" points="322.235,26.774 266.261,26.771 258.21,79.971 314.2,79.971 "/>
<g>
	<path fill="#000713" d="M299.596,26.7l-17.013,39.695h-11.058L254.571,26.7h12.135l10.773,25.859L288.481,26.7H299.596z"/>
	<path fill="#000713" d="M298.937,78.82c-3.025-0.795-5.482-1.853-7.372-3.176l3.687-8.279c1.776,1.172,3.837,2.117,6.181,2.836
		c2.345,0.717,4.65,1.078,6.919,1.078c4.31,0,6.465-1.078,6.465-3.234c0-1.133-0.614-1.975-1.844-2.522
		c-1.229-0.548-3.204-1.124-5.927-1.729c-2.985-0.643-5.479-1.332-7.483-2.068c-2.005-0.736-3.725-1.919-5.161-3.544
		c-1.438-1.626-2.154-3.817-2.154-6.579c0-2.417,0.661-4.602,1.984-6.549c1.322-1.946,3.298-3.488,5.927-4.622
		c2.626-1.136,5.85-1.701,9.668-1.701c2.606,0,5.179,0.293,7.712,0.879c2.532,0.587,4.763,1.446,6.691,2.58l-3.458,8.336
		c-3.781-2.041-7.449-3.063-11.003-3.063c-2.229,0-3.855,0.332-4.876,0.994c-1.021,0.662-1.531,1.521-1.531,2.58
		s0.604,1.853,1.814,2.381c1.209,0.529,3.155,1.078,5.84,1.646c3.024,0.644,5.529,1.333,7.516,2.069
		c1.982,0.736,3.703,1.91,5.159,3.517c1.455,1.604,2.184,3.79,2.184,6.548c0,2.383-0.662,4.539-1.985,6.467
		c-1.322,1.927-3.308,3.47-5.952,4.621c-2.646,1.152-5.86,1.729-9.642,1.729C305.079,80.011,301.96,79.613,298.937,78.82z"/>
</g>
<polygon fill="#FFFFFF" points="21.241,26.772 13.334,79.969 39.334,79.969 44.537,44.636 47.585,44.636 42.334,79.971 
	68.336,79.971 73.538,44.636 76.585,44.636 71.334,79.969 97.334,79.971 105.168,26.771 "/>
<path fill="#FFFFFF" d="M128.431,65.625l0.521-3.557h30.246h0.005l5.158-35.296l-56.117-0.001l-7.907,53.197l56.25,0.001
	l2.098-14.345L128.431,65.625L128.431,65.625z M131.679,43.401v0.002h4.341l-1.48,9.968h-4.315L131.679,43.401z"/>
<polygon fill="#FFFFFF" points="191.317,26.771 191.317,26.771 191.313,26.771 193.567,11.604 169.521,11.604 160.889,69.579 
	169.567,79.968 195.827,79.968 197.945,65.584 185.528,65.584 188.625,44.667 201.042,44.667 201.047,44.635 201.079,44.635 
	203.734,26.771 "/>
<path fill="#FFFFFF" d="M234.764,41.117l-0.521,3.557h-30.246h-0.006l-5.158,35.295l56.119,0.002l7.905-53.198l-56.25-0.001
	l-2.096,14.345H234.764z M231.516,63.34v-0.002h-4.343l1.482-9.967h4.315L231.516,63.34z"/>
</svg>
